<svg xmlns="http://www.w3.org/2000/svg" xmlns:xlink="http://www.w3.org/1999/xlink" width="260" height="43" viewBox="0 0 260 43">
    <defs>
        <path id="a" d="M0 .61h51.741v42.096H0z"/>
    </defs>
    <g fill="none" fill-rule="evenodd">
        <path fill="#EECD83" d="M22.175 19.765a2.565 2.565 0 0 1-.175-.93C22.013 17.248 23.386 16 25.096 16c1.336 0 2.47.774 2.904 1.858-.017-.005-.023.002-.015.023.145.37-1.029 1.098-2.624 1.624-1.596.527-3.006.653-3.153.283-.007-.022-.019-.027-.033-.023M23.308 15l-.308.114.308-.114"/>
        <g transform="translate(0 -.315)">
            <mask id="b" fill="#fff">
                <use xlink:href="#a"/>
            </mask>
            <path fill="#EECD83" d="M28.247 28.218c14.226-5.18 24.696-12.304 23.383-15.912-.678-1.864-4.37-2.424-9.742-1.816a16.234 16.234 0 0 0-3.461-4.951C35.093 2.253 30.854.609 25.71.609H8.33v19.927a104.154 104.154 0 0 1 8.738-4.168V7.621h8.31c2.777 0 5.01 1.033 6.706 3.094.432.526.809 1.09 1.13 1.69 5.53-1.08 9.555-.88 10.155.789.917 2.546-6.477 7.548-16.52 11.172-10.043 3.623-18.927 4.496-19.845 1.95-.299-.833.294-1.93 1.576-3.155h-.006a.477.477 0 0 0-.592-.748c-.008.005-.01.005-.016.006-5.483 3.352-8.607 6.578-7.854 8.646.612 1.683 3.678 2.303 8.218 1.961v9.68H25.71c5.144 0 9.383-1.633 12.717-4.9 3.332-3.267 5-7.485 5-12.65v-2.329c-2.691 1.452-5.714 2.896-8.982 4.273-.33 2.15-1.116 3.987-2.362 5.51-1.695 2.072-3.93 3.106-6.705 3.106h-8.311v-4.128c3.469-.812 7.263-1.942 11.18-3.37" mask="url(#b)"/>
        </g>
        <path fill="#FFF" d="M252.351 25.598l.344 1.55h.087l3.4-10.854H260l-6.43 17.892c-.41 1.08-.989 2.006-1.736 2.77-.747.767-1.803 1.149-3.173 1.149-.286 0-.594-.029-.925-.087-.33-.056-.647-.123-.955-.2l.388-2.7c.125.009.302.024.532.044.229.02.401.028.516.028.631 0 1.137-.216 1.515-.646.378-.432.687-.93.925-1.494l.574-1.406-5.641-15.35h3.804l2.957 9.304zM237.87 21.62l2.869-5.326h4.006l-4.88 7.681 5.022 7.854h-3.96l-2.999-5.456-3.001 5.456h-3.99l5.025-7.854-4.88-7.681h3.961l2.827 5.326zm-16.463 7.71c.872 0 1.658-.22 2.362-.658.702-.44 1.17-.944 1.398-1.508v-2.298h-2.768c-1.015 0-1.81.252-2.384.756-.573.5-.86 1.092-.86 1.771 0 .594.193 1.065.58 1.415.389.35.946.522 1.672.522zm4.262 2.5a13.472 13.472 0 0 1-.308-1.148 8.16 8.16 0 0 1-.164-1.121 6.004 6.004 0 0 1-1.88 1.832 4.848 4.848 0 0 1-2.627.738c-1.616 0-2.858-.415-3.724-1.249-.865-.833-1.298-1.976-1.298-3.43 0-1.503.592-2.674 1.778-3.512 1.188-.837 2.856-1.256 5.01-1.256h2.711V21.32c0-.814-.235-1.45-.709-1.91-.474-.46-1.16-.689-2.059-.689-.795 0-1.427.19-1.896.566-.467.379-.703.868-.703 1.473l-3.358.014-.014-.086c-.068-1.225.481-2.312 1.643-3.26 1.162-.947 2.675-1.422 4.543-1.422 1.808 0 3.267.46 4.377 1.378 1.109.92 1.666 2.24 1.666 3.964v6.907c0 .642.042 1.255.128 1.845a9.84 9.84 0 0 0 .416 1.73h-3.532zm-16.747 0h3.487V9.43h-3.487v22.4zm-11.125-2.5c.871 0 1.659-.22 2.361-.658.704-.44 1.17-.944 1.4-1.508v-2.298h-2.768c-1.016 0-1.811.252-2.384.756-.575.5-.862 1.092-.862 1.771 0 .594.193 1.065.581 1.415.388.35.946.522 1.672.522zm4.264 2.5a12.592 12.592 0 0 1-.31-1.148 7.966 7.966 0 0 1-.163-1.121 6.022 6.022 0 0 1-1.881 1.832 4.838 4.838 0 0 1-2.626.738c-1.617 0-2.859-.415-3.724-1.249-.867-.833-1.299-1.976-1.299-3.43 0-1.503.593-2.674 1.779-3.512 1.187-.837 2.857-1.256 5.01-1.256h2.71V21.32c0-.814-.236-1.45-.708-1.91-.475-.46-1.162-.689-2.06-.689-.795 0-1.427.19-1.896.566a1.81 1.81 0 0 0-.703 1.473l-3.358.014-.013-.086c-.069-1.225.48-2.312 1.642-3.26 1.163-.947 2.677-1.422 4.542-1.422 1.808 0 3.268.46 4.377 1.378 1.11.92 1.666 2.24 1.666 3.964v6.907c0 .642.043 1.255.129 1.845a9.96 9.96 0 0 0 .416 1.73h-3.53zm-13.263-2.828c-.573.814-1.488 1.538-2.747 2.175-1.259.637-2.882.954-4.872.954-2.47 0-4.5-.796-6.093-2.392-1.594-1.593-2.39-3.653-2.39-6.18v-4.364c0-2.529.77-4.589 2.31-6.182 1.54-1.594 3.522-2.392 5.943-2.392 2.43 0 4.326.614 5.683 1.84 1.358 1.225 2.019 2.823 1.981 4.795l-.044.086h-3.315c0-1.18-.365-2.124-1.097-2.843-.732-.719-1.784-1.078-3.15-1.078-1.444 0-2.611.542-3.496 1.624-.885 1.082-1.327 2.456-1.327 4.12v4.394c0 1.686.462 3.07 1.385 4.156.923 1.089 2.127 1.631 3.61 1.631 1.12 0 2.003-.127 2.655-.38.65-.255 1.142-.562 1.478-.927v-4.321h-4.377v-2.614h7.863v7.898zm-29.721-1.422c0-.536-.23-.979-.684-1.33-.452-.348-1.31-.662-2.576-.939-1.826-.373-3.225-.924-4.19-1.653-.967-.726-1.45-1.701-1.45-2.927 0-1.3.551-2.415 1.65-3.339 1.1-.924 2.55-1.386 4.348-1.386 1.857 0 3.352.476 4.488 1.429 1.132.952 1.675 2.099 1.628 3.44l-.03.086h-3.343c0-.632-.25-1.18-.748-1.644-.495-.465-1.161-.698-1.995-.698-.842 0-1.482.193-1.922.576-.44.382-.66.851-.66 1.407 0 .526.206.948.616 1.261.412.319 1.26.6 2.542.85 1.903.382 3.34.944 4.306 1.687.964.741 1.448 1.735 1.448 2.978 0 1.399-.575 2.539-1.728 3.426-1.156.884-2.672 1.327-4.558 1.327-2.019 0-3.611-.516-4.78-1.55-1.166-1.034-1.722-2.222-1.664-3.56l.03-.086h3.241c.04.898.365 1.554.977 1.966.613.411 1.36.617 2.24.617.89 0 1.58-.177 2.073-.532.493-.352.74-.822.74-1.406zm-11.312-8.14l-1.493-.06c-.679 0-1.245.145-1.7.431-.455.287-.805.695-1.055 1.222v10.796h-3.487V16.294h3.186l.23 2.255c.392-.796.898-1.418 1.515-1.869.617-.447 1.327-.674 2.13-.674.21 0 .406.017.589.05.182.034.35.076.503.122l-.418 3.262zm-21.543 4.78c0 1.522.298 2.756.89 3.705.594.946 1.513 1.421 2.757 1.421 1.215 0 2.125-.476 2.733-1.429.608-.952.912-2.184.912-3.697v-.3c0-1.485-.304-2.709-.912-3.67-.608-.963-1.527-1.445-2.763-1.445-1.214 0-2.121.482-2.719 1.445-.597.961-.898 2.185-.898 3.67v.3zm-3.487-.3c0-2.318.634-4.216 1.903-5.696 1.266-1.479 3-2.218 5.201-2.218 2.23 0 3.978.74 5.247 2.218 1.267 1.48 1.901 3.378 1.901 5.696v.3c0 2.335-.634 4.238-1.901 5.707-1.27 1.47-3.006 2.204-5.217 2.204-2.22 0-3.965-.736-5.231-2.21-1.27-1.474-1.903-3.375-1.903-5.701v-.3zm-4.952-11.401v3.775h2.785v2.584h-2.785v8.586c0 .641.139 1.1.417 1.372.278.273.645.41 1.106.41.19 0 .378-.018.559-.051.182-.034.354-.08.517-.136l.374 2.556c-.298.163-.65.29-1.057.38-.406.09-.829.136-1.269.136-1.282 0-2.29-.374-3.021-1.127-.733-.752-1.099-1.931-1.099-3.54v-8.586h-2.368v-2.584h2.368v-3.775h3.473zm-13.419 16.827c.795 0 1.467-.248 2.016-.748.55-.497.826-1.128.826-1.893h3.156l.03.085c.038 1.455-.538 2.709-1.73 3.762-1.19 1.054-2.623 1.579-4.298 1.579-2.239 0-3.967-.738-5.18-2.218-1.217-1.478-1.823-3.344-1.823-5.593v-.501c0-2.242.606-4.103 1.823-5.587 1.213-1.483 2.936-2.226 5.166-2.226 1.808 0 3.277.545 4.406 1.63 1.128 1.087 1.674 2.467 1.636 4.143l-.03.084h-3.156c0-.849-.264-1.572-.789-2.165-.528-.595-1.216-.893-2.067-.893-1.244 0-2.138.482-2.684 1.445-.546.961-.817 2.152-.817 3.569v.5c0 1.447.27 2.646.81 3.598.54.953 1.442 1.429 2.705 1.429zM84.226 24.22c0 1.522.297 2.756.89 3.705.593.946 1.513 1.421 2.757 1.421 1.214 0 2.126-.476 2.734-1.429.608-.952.91-2.184.91-3.697v-.3c0-1.485-.302-2.709-.91-3.67-.608-.963-1.53-1.445-2.763-1.445-1.215 0-2.122.482-2.72 1.445-.598.961-.898 2.185-.898 3.67v.3zm-3.486-.3c0-2.318.632-4.216 1.901-5.696 1.268-1.479 3.002-2.218 5.203-2.218 2.23 0 3.977.74 5.245 2.218 1.268 1.48 1.903 3.378 1.903 5.696v.3c0 2.335-.635 4.238-1.903 5.707-1.268 1.47-3.006 2.204-5.216 2.204-2.22 0-3.964-.736-5.232-2.21-1.269-1.474-1.901-3.375-1.901-5.701v-.3zm-15.2-10.195v15.32h3.417c1.674 0 3.003-.567 3.989-1.701.986-1.136 1.477-2.592 1.477-4.373V19.77c0-1.762-.491-3.21-1.477-4.345-.986-1.135-2.315-1.7-3.99-1.7h-3.415zm-3.488 18.104V10.923h6.905c2.65 0 4.805.828 6.465 2.483 1.66 1.658 2.491 3.788 2.491 6.39v3.175c0 2.613-.832 4.743-2.491 6.388-1.66 1.647-3.815 2.47-6.465 2.47h-6.905z"/>
    </g>
</svg>
